<?xml version="1.0" encoding="utf-8" ?>
<svg baseProfile="full" height="3508" version="1.1" width="2480" xmlns="http://www.w3.org/2000/svg" xmlns:ev="http://www.w3.org/2001/xml-events" xmlns:xlink="http://www.w3.org/1999/xlink"><defs /><g><text alignment-baseline="central" fill="black" font-size="40" text-anchor="middle" x="464" y="978" /><text alignment-baseline="central" fill="black" font-size="40" text-anchor="middle" x="658" y="978">6</text><text alignment-baseline="central" fill="black" font-size="40" text-anchor="middle" x="852" y="978" /><text alignment-baseline="central" fill="black" font-size="40" text-anchor="middle" x="1046" y="978">1</text><text alignment-baseline="central" fill="black" font-size="40" text-anchor="middle" x="1240" y="978" /><text alignment-baseline="central" fill="black" font-size="40" text-anchor="middle" x="1434" y="978" /><text alignment-baseline="central" fill="black" font-size="40" text-anchor="middle" x="1628" y="978" /><text alignment-baseline="central" fill="black" font-size="40" text-anchor="middle" x="1822" y="978">8</text><text alignment-baseline="central" fill="black" font-size="40" text-anchor="middle" x="2016" y="978">9</text><text alignment-baseline="central" fill="black" font-size="40" text-anchor="middle" x="464" y="1172" /><text alignment-baseline="central" fill="black" font-size="40" text-anchor="middle" x="658" y="1172" /><text alignment-baseline="central" fill="black" font-size="40" text-anchor="middle" x="852" y="1172" /><text alignment-baseline="central" fill="black" font-size="40" text-anchor="middle" x="1046" y="1172" /><text alignment-baseline="central" fill="black" font-size="40" text-anchor="middle" x="1240" y="1172">9</text><text alignment-baseline="central" fill="black" font-size="40" text-anchor="middle" x="1434" y="1172" /><text alignment-baseline="central" fill="black" font-size="40" text-anchor="middle" x="1628" y="1172" /><text alignment-baseline="central" fill="black" font-size="40" text-anchor="middle" x="1822" y="1172" /><text alignment-baseline="central" fill="black" font-size="40" text-anchor="middle" x="2016" y="1172">3</text><text alignment-baseline="central" fill="black" font-size="40" text-anchor="middle" x="464" y="1366" /><text alignment-baseline="central" fill="black" font-size="40" text-anchor="middle" x="658" y="1366" /><text alignment-baseline="central" fill="black" font-size="40" text-anchor="middle" x="852" y="1366" /><text alignment-baseline="central" fill="black" font-size="40" text-anchor="middle" x="1046" y="1366" /><text alignment-baseline="central" fill="black" font-size="40" text-anchor="middle" x="1240" y="1366" /><text alignment-baseline="central" fill="black" font-size="40" text-anchor="middle" x="1434" y="1366" /><text alignment-baseline="central" fill="black" font-size="40" text-anchor="middle" x="1628" y="1366" /><text alignment-baseline="central" fill="black" font-size="40" text-anchor="middle" x="1822" y="1366" /><text alignment-baseline="central" fill="black" font-size="40" text-anchor="middle" x="2016" y="1366" /><text alignment-baseline="central" fill="black" font-size="40" text-anchor="middle" x="464" y="1560">3</text><text alignment-baseline="central" fill="black" font-size="40" text-anchor="middle" x="658" y="1560" /><text alignment-baseline="central" fill="black" font-size="40" text-anchor="middle" x="852" y="1560" /><text alignment-baseline="central" fill="black" font-size="40" text-anchor="middle" x="1046" y="1560" /><text alignment-baseline="central" fill="black" font-size="40" text-anchor="middle" x="1240" y="1560">6</text><text alignment-baseline="central" fill="black" font-size="40" text-anchor="middle" x="1434" y="1560">5</text><text alignment-baseline="central" fill="black" font-size="40" text-anchor="middle" x="1628" y="1560" /><text alignment-baseline="central" fill="black" font-size="40" text-anchor="middle" x="1822" y="1560" /><text alignment-baseline="central" fill="black" font-size="40" text-anchor="middle" x="2016" y="1560">1</text><text alignment-baseline="central" fill="black" font-size="40" text-anchor="middle" x="464" y="1754">7</text><text alignment-baseline="central" fill="black" font-size="40" text-anchor="middle" x="658" y="1754" /><text alignment-baseline="central" fill="black" font-size="40" text-anchor="middle" x="852" y="1754" /><text alignment-baseline="central" fill="black" font-size="40" text-anchor="middle" x="1046" y="1754" /><text alignment-baseline="central" fill="black" font-size="40" text-anchor="middle" x="1240" y="1754">3</text><text alignment-baseline="central" fill="black" font-size="40" text-anchor="middle" x="1434" y="1754" /><text alignment-baseline="central" fill="black" font-size="40" text-anchor="middle" x="1628" y="1754">4</text><text alignment-baseline="central" fill="black" font-size="40" text-anchor="middle" x="1822" y="1754" /><text alignment-baseline="central" fill="black" font-size="40" text-anchor="middle" x="2016" y="1754" /><text alignment-baseline="central" fill="black" font-size="40" text-anchor="middle" x="464" y="1948" /><text alignment-baseline="central" fill="black" font-size="40" text-anchor="middle" x="658" y="1948" /><text alignment-baseline="central" fill="black" font-size="40" text-anchor="middle" x="852" y="1948">2</text><text alignment-baseline="central" fill="black" font-size="40" text-anchor="middle" x="1046" y="1948" /><text alignment-baseline="central" fill="black" font-size="40" text-anchor="middle" x="1240" y="1948">4</text><text alignment-baseline="central" fill="black" font-size="40" text-anchor="middle" x="1434" y="1948" /><text alignment-baseline="central" fill="black" font-size="40" text-anchor="middle" x="1628" y="1948" /><text alignment-baseline="central" fill="black" font-size="40" text-anchor="middle" x="1822" y="1948" /><text alignment-baseline="central" fill="black" font-size="40" text-anchor="middle" x="2016" y="1948" /><text alignment-baseline="central" fill="black" font-size="40" text-anchor="middle" x="464" y="2142" /><text alignment-baseline="central" fill="black" font-size="40" text-anchor="middle" x="658" y="2142" /><text alignment-baseline="central" fill="black" font-size="40" text-anchor="middle" x="852" y="2142" /><text alignment-baseline="central" fill="black" font-size="40" text-anchor="middle" x="1046" y="2142">3</text><text alignment-baseline="central" fill="black" font-size="40" text-anchor="middle" x="1240" y="2142" /><text alignment-baseline="central" fill="black" font-size="40" text-anchor="middle" x="1434" y="2142">7</text><text alignment-baseline="central" fill="black" font-size="40" text-anchor="middle" x="1628" y="2142" /><text alignment-baseline="central" fill="black" font-size="40" text-anchor="middle" x="1822" y="2142" /><text alignment-baseline="central" fill="black" font-size="40" text-anchor="middle" x="2016" y="2142" /><text alignment-baseline="central" fill="black" font-size="40" text-anchor="middle" x="464" y="2336" /><text alignment-baseline="central" fill="black" font-size="40" text-anchor="middle" x="658" y="2336" /><text alignment-baseline="central" fill="black" font-size="40" text-anchor="middle" x="852" y="2336" /><text alignment-baseline="central" fill="black" font-size="40" text-anchor="middle" x="1046" y="2336" /><text alignment-baseline="central" fill="black" font-size="40" text-anchor="middle" x="1240" y="2336">8</text><text alignment-baseline="central" fill="black" font-size="40" text-anchor="middle" x="1434" y="2336">9</text><text alignment-baseline="central" fill="black" font-size="40" text-anchor="middle" x="1628" y="2336" /><text alignment-baseline="central" fill="black" font-size="40" text-anchor="middle" x="1822" y="2336" /><text alignment-baseline="central" fill="black" font-size="40" text-anchor="middle" x="2016" y="2336" /><text alignment-baseline="central" fill="black" font-size="40" text-anchor="middle" x="464" y="2530" /><text alignment-baseline="central" fill="black" font-size="40" text-anchor="middle" x="658" y="2530" /><text alignment-baseline="central" fill="black" font-size="40" text-anchor="middle" x="852" y="2530" /><text alignment-baseline="central" fill="black" font-size="40" text-anchor="middle" x="1046" y="2530" /><text alignment-baseline="central" fill="black" font-size="40" text-anchor="middle" x="1240" y="2530" /><text alignment-baseline="central" fill="black" font-size="40" text-anchor="middle" x="1434" y="2530" /><text alignment-baseline="central" fill="black" font-size="40" text-anchor="middle" x="1628" y="2530">3</text><text alignment-baseline="central" fill="black" font-size="40" text-anchor="middle" x="1822" y="2530" /><text alignment-baseline="central" fill="black" font-size="40" text-anchor="middle" x="2016" y="2530" /><rect fill="none" height="194" stroke="black" width="194" x="367" y="881" /><rect fill="none" height="194" stroke="black" width="194" x="561" y="881" /><rect fill="none" height="194" stroke="black" width="194" x="755" y="881" /><rect fill="none" height="194" stroke="black" width="194" x="949" y="881" /><rect fill="none" height="194" stroke="black" width="194" x="1143" y="881" /><rect fill="none" height="194" stroke="black" width="194" x="1337" y="881" /><rect fill="none" height="194" stroke="black" width="194" x="1531" y="881" /><rect fill="none" height="194" stroke="black" width="194" x="1725" y="881" /><rect fill="none" height="194" stroke="black" width="194" x="1919" y="881" /><rect fill="none" height="194" stroke="black" width="194" x="367" y="1075" /><rect fill="none" height="194" stroke="black" width="194" x="561" y="1075" /><rect fill="none" height="194" stroke="black" width="194" x="755" y="1075" /><rect fill="none" height="194" stroke="black" width="194" x="949" y="1075" /><rect fill="none" height="194" stroke="black" width="194" x="1143" y="1075" /><rect fill="none" height="194" stroke="black" width="194" x="1337" y="1075" /><rect fill="none" height="194" stroke="black" width="194" x="1531" y="1075" /><rect fill="none" height="194" stroke="black" width="194" x="1725" y="1075" /><rect fill="none" height="194" stroke="black" width="194" x="1919" y="1075" /><rect fill="none" height="194" stroke="black" width="194" x="367" y="1269" /><rect fill="none" height="194" stroke="black" width="194" x="561" y="1269" /><rect fill="none" height="194" stroke="black" width="194" x="755" y="1269" /><rect fill="none" height="194" stroke="black" width="194" x="949" y="1269" /><rect fill="none" height="194" stroke="black" width="194" x="1143" y="1269" /><rect fill="none" height="194" stroke="black" width="194" x="1337" y="1269" /><rect fill="none" height="194" stroke="black" width="194" x="1531" y="1269" /><rect fill="none" height="194" stroke="black" width="194" x="1725" y="1269" /><rect fill="none" height="194" stroke="black" width="194" x="1919" y="1269" /><rect fill="none" height="194" stroke="black" width="194" x="367" y="1463" /><rect fill="none" height="194" stroke="black" width="194" x="561" y="1463" /><rect fill="none" height="194" stroke="black" width="194" x="755" y="1463" /><rect fill="none" height="194" stroke="black" width="194" x="949" y="1463" /><rect fill="none" height="194" stroke="black" width="194" x="1143" y="1463" /><rect fill="none" height="194" stroke="black" width="194" x="1337" y="1463" /><rect fill="none" height="194" stroke="black" width="194" x="1531" y="1463" /><rect fill="none" height="194" stroke="black" width="194" x="1725" y="1463" /><rect fill="none" height="194" stroke="black" width="194" x="1919" y="1463" /><rect fill="none" height="194" stroke="black" width="194" x="367" y="1657" /><rect fill="none" height="194" stroke="black" width="194" x="561" y="1657" /><rect fill="none" height="194" stroke="black" width="194" x="755" y="1657" /><rect fill="none" height="194" stroke="black" width="194" x="949" y="1657" /><rect fill="none" height="194" stroke="black" width="194" x="1143" y="1657" /><rect fill="none" height="194" stroke="black" width="194" x="1337" y="1657" /><rect fill="none" height="194" stroke="black" width="194" x="1531" y="1657" /><rect fill="none" height="194" stroke="black" width="194" x="1725" y="1657" /><rect fill="none" height="194" stroke="black" width="194" x="1919" y="1657" /><rect fill="none" height="194" stroke="black" width="194" x="367" y="1851" /><rect fill="none" height="194" stroke="black" width="194" x="561" y="1851" /><rect fill="none" height="194" stroke="black" width="194" x="755" y="1851" /><rect fill="none" height="194" stroke="black" width="194" x="949" y="1851" /><rect fill="none" height="194" stroke="black" width="194" x="1143" y="1851" /><rect fill="none" height="194" stroke="black" width="194" x="1337" y="1851" /><rect fill="none" height="194" stroke="black" width="194" x="1531" y="1851" /><rect fill="none" height="194" stroke="black" width="194" x="1725" y="1851" /><rect fill="none" height="194" stroke="black" width="194" x="1919" y="1851" /><rect fill="none" height="194" stroke="black" width="194" x="367" y="2045" /><rect fill="none" height="194" stroke="black" width="194" x="561" y="2045" /><rect fill="none" height="194" stroke="black" width="194" x="755" y="2045" /><rect fill="none" height="194" stroke="black" width="194" x="949" y="2045" /><rect fill="none" height="194" stroke="black" width="194" x="1143" y="2045" /><rect fill="none" height="194" stroke="black" width="194" x="1337" y="2045" /><rect fill="none" height="194" stroke="black" width="194" x="1531" y="2045" /><rect fill="none" height="194" stroke="black" width="194" x="1725" y="2045" /><rect fill="none" height="194" stroke="black" width="194" x="1919" y="2045" /><rect fill="none" height="194" stroke="black" width="194" x="367" y="2239" /><rect fill="none" height="194" stroke="black" width="194" x="561" y="2239" /><rect fill="none" height="194" stroke="black" width="194" x="755" y="2239" /><rect fill="none" height="194" stroke="black" width="194" x="949" y="2239" /><rect fill="none" height="194" stroke="black" width="194" x="1143" y="2239" /><rect fill="none" height="194" stroke="black" width="194" x="1337" y="2239" /><rect fill="none" height="194" stroke="black" width="194" x="1531" y="2239" /><rect fill="none" height="194" stroke="black" width="194" x="1725" y="2239" /><rect fill="none" height="194" stroke="black" width="194" x="1919" y="2239" /><rect fill="none" height="194" stroke="black" width="194" x="367" y="2433" /><rect fill="none" height="194" stroke="black" width="194" x="561" y="2433" /><rect fill="none" height="194" stroke="black" width="194" x="755" y="2433" /><rect fill="none" height="194" stroke="black" width="194" x="949" y="2433" /><rect fill="none" height="194" stroke="black" width="194" x="1143" y="2433" /><rect fill="none" height="194" stroke="black" width="194" x="1337" y="2433" /><rect fill="none" height="194" stroke="black" width="194" x="1531" y="2433" /><rect fill="none" height="194" stroke="black" width="194" x="1725" y="2433" /><rect fill="none" height="194" stroke="black" width="194" x="1919" y="2433" /></g><rect fill="none" height="1746" stroke="red" stroke-width="5" width="1746" x="367" y="881" /></svg>