<?xml version="1.0" encoding="utf-8" ?>
<svg baseProfile="full" height="360" version="1.1" width="360" xmlns="http://www.w3.org/2000/svg" xmlns:ev="http://www.w3.org/2001/xml-events" xmlns:xlink="http://www.w3.org/1999/xlink"><defs /><line stroke="black" stroke-width="3" x1="0" x2="360" y1="120" y2="120" /><line stroke="black" stroke-width="3" x1="120" x2="120" y1="0" y2="360" /><line stroke="black" stroke-width="3" x1="0" x2="360" y1="240" y2="240" /><line stroke="black" stroke-width="3" x1="240" x2="240" y1="0" y2="360" /><g><text alignment-baseline="central" fill="black" font-size="20" text-anchor="middle" x="20" y="20">1</text><rect fill="none" height="40" stroke="black" stroke-width="1" width="40" x="0" y="0" /><text alignment-baseline="central" fill="black" font-size="20" text-anchor="middle" x="60" y="20">3</text><rect fill="none" height="40" stroke="black" stroke-width="1" width="40" x="40" y="0" /><text alignment-baseline="central" fill="black" font-size="20" text-anchor="middle" x="100" y="20">2</text><rect fill="none" height="40" stroke="black" stroke-width="1" width="40" x="80" y="0" /><text alignment-baseline="central" fill="black" font-size="20" text-anchor="middle" x="140" y="20">6</text><rect fill="none" height="40" stroke="black" stroke-width="1" width="40" x="120" y="0" /><text alignment-baseline="central" fill="black" font-size="20" text-anchor="middle" x="180" y="20">4</text><rect fill="none" height="40" stroke="black" stroke-width="1" width="40" x="160" y="0" /><text alignment-baseline="central" fill="black" font-size="20" text-anchor="middle" x="220" y="20">8</text><rect fill="none" height="40" stroke="black" stroke-width="1" width="40" x="200" y="0" /><text alignment-baseline="central" fill="black" font-size="20" text-anchor="middle" x="260" y="20">5</text><rect fill="none" height="40" stroke="black" stroke-width="1" width="40" x="240" y="0" /><text alignment-baseline="central" fill="black" font-size="20" text-anchor="middle" x="300" y="20">9</text><rect fill="none" height="40" stroke="black" stroke-width="1" width="40" x="280" y="0" /><text alignment-baseline="central" fill="black" font-size="20" text-anchor="middle" x="340" y="20">7</text><rect fill="none" height="40" stroke="black" stroke-width="1" width="40" x="320" y="0" /><text alignment-baseline="central" fill="black" font-size="20" text-anchor="middle" x="20" y="60">5</text><rect fill="none" height="40" stroke="black" stroke-width="1" width="40" x="0" y="40" /><text alignment-baseline="central" fill="black" font-size="20" text-anchor="middle" x="60" y="60">7</text><rect fill="none" height="40" stroke="black" stroke-width="1" width="40" x="40" y="40" /><text alignment-baseline="central" fill="black" font-size="20" text-anchor="middle" x="100" y="60">9</text><rect fill="none" height="40" stroke="black" stroke-width="1" width="40" x="80" y="40" /><text alignment-baseline="central" fill="black" font-size="20" text-anchor="middle" x="140" y="60">3</text><rect fill="none" height="40" stroke="black" stroke-width="1" width="40" x="120" y="40" /><text alignment-baseline="central" fill="black" font-size="20" text-anchor="middle" x="180" y="60">1</text><rect fill="none" height="40" stroke="black" stroke-width="1" width="40" x="160" y="40" /><text alignment-baseline="central" fill="black" font-size="20" text-anchor="middle" x="220" y="60">2</text><rect fill="none" height="40" stroke="black" stroke-width="1" width="40" x="200" y="40" /><text alignment-baseline="central" fill="black" font-size="20" text-anchor="middle" x="260" y="60">6</text><rect fill="none" height="40" stroke="black" stroke-width="1" width="40" x="240" y="40" /><text alignment-baseline="central" fill="black" font-size="20" text-anchor="middle" x="300" y="60">8</text><rect fill="none" height="40" stroke="black" stroke-width="1" width="40" x="280" y="40" /><text alignment-baseline="central" fill="black" font-size="20" text-anchor="middle" x="340" y="60">4</text><rect fill="none" height="40" stroke="black" stroke-width="1" width="40" x="320" y="40" /><text alignment-baseline="central" fill="black" font-size="20" text-anchor="middle" x="20" y="100">4</text><rect fill="none" height="40" stroke="black" stroke-width="1" width="40" x="0" y="80" /><text alignment-baseline="central" fill="black" font-size="20" text-anchor="middle" x="60" y="100">8</text><rect fill="none" height="40" stroke="black" stroke-width="1" width="40" x="40" y="80" /><text alignment-baseline="central" fill="black" font-size="20" text-anchor="middle" x="100" y="100">6</text><rect fill="none" height="40" stroke="black" stroke-width="1" width="40" x="80" y="80" /><text alignment-baseline="central" fill="black" font-size="20" text-anchor="middle" x="140" y="100">7</text><rect fill="none" height="40" stroke="black" stroke-width="1" width="40" x="120" y="80" /><text alignment-baseline="central" fill="black" font-size="20" text-anchor="middle" x="180" y="100">5</text><rect fill="none" height="40" stroke="black" stroke-width="1" width="40" x="160" y="80" /><text alignment-baseline="central" fill="black" font-size="20" text-anchor="middle" x="220" y="100">9</text><rect fill="none" height="40" stroke="black" stroke-width="1" width="40" x="200" y="80" /><text alignment-baseline="central" fill="black" font-size="20" text-anchor="middle" x="260" y="100">1</text><rect fill="none" height="40" stroke="black" stroke-width="1" width="40" x="240" y="80" /><text alignment-baseline="central" fill="black" font-size="20" text-anchor="middle" x="300" y="100">3</text><rect fill="none" height="40" stroke="black" stroke-width="1" width="40" x="280" y="80" /><text alignment-baseline="central" fill="black" font-size="20" text-anchor="middle" x="340" y="100">2</text><rect fill="none" height="40" stroke="black" stroke-width="1" width="40" x="320" y="80" /><text alignment-baseline="central" fill="black" font-size="20" text-anchor="middle" x="20" y="140">8</text><rect fill="none" height="40" stroke="black" stroke-width="1" width="40" x="0" y="120" /><text alignment-baseline="central" fill="black" font-size="20" text-anchor="middle" x="60" y="140">4</text><rect fill="none" height="40" stroke="black" stroke-width="1" width="40" x="40" y="120" /><text alignment-baseline="central" fill="black" font-size="20" text-anchor="middle" x="100" y="140">3</text><rect fill="none" height="40" stroke="black" stroke-width="1" width="40" x="80" y="120" /><text alignment-baseline="central" fill="black" font-size="20" text-anchor="middle" x="140" y="140">5</text><rect fill="none" height="40" stroke="black" stroke-width="1" width="40" x="120" y="120" /><text alignment-baseline="central" fill="black" font-size="20" text-anchor="middle" x="180" y="140">2</text><rect fill="none" height="40" stroke="black" stroke-width="1" width="40" x="160" y="120" /><text alignment-baseline="central" fill="black" font-size="20" text-anchor="middle" x="220" y="140">6</text><rect fill="none" height="40" stroke="black" stroke-width="1" width="40" x="200" y="120" /><text alignment-baseline="central" fill="black" font-size="20" text-anchor="middle" x="260" y="140">9</text><rect fill="none" height="40" stroke="black" stroke-width="1" width="40" x="240" y="120" /><text alignment-baseline="central" fill="black" font-size="20" text-anchor="middle" x="300" y="140">7</text><rect fill="none" height="40" stroke="black" stroke-width="1" width="40" x="280" y="120" /><text alignment-baseline="central" fill="black" font-size="20" text-anchor="middle" x="340" y="140">1</text><rect fill="none" height="40" stroke="black" stroke-width="1" width="40" x="320" y="120" /><text alignment-baseline="central" fill="black" font-size="20" text-anchor="middle" x="20" y="180">6</text><rect fill="none" height="40" stroke="black" stroke-width="1" width="40" x="0" y="160" /><text alignment-baseline="central" fill="black" font-size="20" text-anchor="middle" x="60" y="180">2</text><rect fill="none" height="40" stroke="black" stroke-width="1" width="40" x="40" y="160" /><text alignment-baseline="central" fill="black" font-size="20" text-anchor="middle" x="100" y="180">1</text><rect fill="none" height="40" stroke="black" stroke-width="1" width="40" x="80" y="160" /><text alignment-baseline="central" fill="black" font-size="20" text-anchor="middle" x="140" y="180">9</text><rect fill="none" height="40" stroke="black" stroke-width="1" width="40" x="120" y="160" /><text alignment-baseline="central" fill="black" font-size="20" text-anchor="middle" x="180" y="180">7</text><rect fill="none" height="40" stroke="black" stroke-width="1" width="40" x="160" y="160" /><text alignment-baseline="central" fill="black" font-size="20" text-anchor="middle" x="220" y="180">3</text><rect fill="none" height="40" stroke="black" stroke-width="1" width="40" x="200" y="160" /><text alignment-baseline="central" fill="black" font-size="20" text-anchor="middle" x="260" y="180">8</text><rect fill="none" height="40" stroke="black" stroke-width="1" width="40" x="240" y="160" /><text alignment-baseline="central" fill="black" font-size="20" text-anchor="middle" x="300" y="180">4</text><rect fill="none" height="40" stroke="black" stroke-width="1" width="40" x="280" y="160" /><text alignment-baseline="central" fill="black" font-size="20" text-anchor="middle" x="340" y="180">5</text><rect fill="none" height="40" stroke="black" stroke-width="1" width="40" x="320" y="160" /><text alignment-baseline="central" fill="black" font-size="20" text-anchor="middle" x="20" y="220">7</text><rect fill="none" height="40" stroke="black" stroke-width="1" width="40" x="0" y="200" /><text alignment-baseline="central" fill="black" font-size="20" text-anchor="middle" x="60" y="220">9</text><rect fill="none" height="40" stroke="black" stroke-width="1" width="40" x="40" y="200" /><text alignment-baseline="central" fill="black" font-size="20" text-anchor="middle" x="100" y="220">5</text><rect fill="none" height="40" stroke="black" stroke-width="1" width="40" x="80" y="200" /><text alignment-baseline="central" fill="black" font-size="20" text-anchor="middle" x="140" y="220">4</text><rect fill="none" height="40" stroke="black" stroke-width="1" width="40" x="120" y="200" /><text alignment-baseline="central" fill="black" font-size="20" text-anchor="middle" x="180" y="220">8</text><rect fill="none" height="40" stroke="black" stroke-width="1" width="40" x="160" y="200" /><text alignment-baseline="central" fill="black" font-size="20" text-anchor="middle" x="220" y="220">1</text><rect fill="none" height="40" stroke="black" stroke-width="1" width="40" x="200" y="200" /><text alignment-baseline="central" fill="black" font-size="20" text-anchor="middle" x="260" y="220">2</text><rect fill="none" height="40" stroke="black" stroke-width="1" width="40" x="240" y="200" /><text alignment-baseline="central" fill="black" font-size="20" text-anchor="middle" x="300" y="220">6</text><rect fill="none" height="40" stroke="black" stroke-width="1" width="40" x="280" y="200" /><text alignment-baseline="central" fill="black" font-size="20" text-anchor="middle" x="340" y="220">3</text><rect fill="none" height="40" stroke="black" stroke-width="1" width="40" x="320" y="200" /><text alignment-baseline="central" fill="black" font-size="20" text-anchor="middle" x="20" y="260">2</text><rect fill="none" height="40" stroke="black" stroke-width="1" width="40" x="0" y="240" /><text alignment-baseline="central" fill="black" font-size="20" text-anchor="middle" x="60" y="260">6</text><rect fill="none" height="40" stroke="black" stroke-width="1" width="40" x="40" y="240" /><text alignment-baseline="central" fill="black" font-size="20" text-anchor="middle" x="100" y="260">8</text><rect fill="none" height="40" stroke="black" stroke-width="1" width="40" x="80" y="240" /><text alignment-baseline="central" fill="black" font-size="20" text-anchor="middle" x="140" y="260">1</text><rect fill="none" height="40" stroke="black" stroke-width="1" width="40" x="120" y="240" /><text alignment-baseline="central" fill="black" font-size="20" text-anchor="middle" x="180" y="260">3</text><rect fill="none" height="40" stroke="black" stroke-width="1" width="40" x="160" y="240" /><text alignment-baseline="central" fill="black" font-size="20" text-anchor="middle" x="220" y="260">4</text><rect fill="none" height="40" stroke="black" stroke-width="1" width="40" x="200" y="240" /><text alignment-baseline="central" fill="black" font-size="20" text-anchor="middle" x="260" y="260">7</text><rect fill="none" height="40" stroke="black" stroke-width="1" width="40" x="240" y="240" /><text alignment-baseline="central" fill="black" font-size="20" text-anchor="middle" x="300" y="260">5</text><rect fill="none" height="40" stroke="black" stroke-width="1" width="40" x="280" y="240" /><text alignment-baseline="central" fill="black" font-size="20" text-anchor="middle" x="340" y="260">9</text><rect fill="none" height="40" stroke="black" stroke-width="1" width="40" x="320" y="240" /><text alignment-baseline="central" fill="black" font-size="20" text-anchor="middle" x="20" y="300">9</text><rect fill="none" height="40" stroke="black" stroke-width="1" width="40" x="0" y="280" /><text alignment-baseline="central" fill="black" font-size="20" text-anchor="middle" x="60" y="300">5</text><rect fill="none" height="40" stroke="black" stroke-width="1" width="40" x="40" y="280" /><text alignment-baseline="central" fill="black" font-size="20" text-anchor="middle" x="100" y="300">4</text><rect fill="none" height="40" stroke="black" stroke-width="1" width="40" x="80" y="280" /><text alignment-baseline="central" fill="black" font-size="20" text-anchor="middle" x="140" y="300">2</text><rect fill="none" height="40" stroke="black" stroke-width="1" width="40" x="120" y="280" /><text alignment-baseline="central" fill="black" font-size="20" text-anchor="middle" x="180" y="300">6</text><rect fill="none" height="40" stroke="black" stroke-width="1" width="40" x="160" y="280" /><text alignment-baseline="central" fill="black" font-size="20" text-anchor="middle" x="220" y="300">7</text><rect fill="none" height="40" stroke="black" stroke-width="1" width="40" x="200" y="280" /><text alignment-baseline="central" fill="black" font-size="20" text-anchor="middle" x="260" y="300">3</text><rect fill="none" height="40" stroke="black" stroke-width="1" width="40" x="240" y="280" /><text alignment-baseline="central" fill="black" font-size="20" text-anchor="middle" x="300" y="300">1</text><rect fill="none" height="40" stroke="black" stroke-width="1" width="40" x="280" y="280" /><text alignment-baseline="central" fill="black" font-size="20" text-anchor="middle" x="340" y="300">8</text><rect fill="none" height="40" stroke="black" stroke-width="1" width="40" x="320" y="280" /><text alignment-baseline="central" fill="black" font-size="20" text-anchor="middle" x="20" y="340">3</text><rect fill="none" height="40" stroke="black" stroke-width="1" width="40" x="0" y="320" /><text alignment-baseline="central" fill="black" font-size="20" text-anchor="middle" x="60" y="340">1</text><rect fill="none" height="40" stroke="black" stroke-width="1" width="40" x="40" y="320" /><text alignment-baseline="central" fill="black" font-size="20" text-anchor="middle" x="100" y="340">7</text><rect fill="none" height="40" stroke="black" stroke-width="1" width="40" x="80" y="320" /><text alignment-baseline="central" fill="black" font-size="20" text-anchor="middle" x="140" y="340">8</text><rect fill="none" height="40" stroke="black" stroke-width="1" width="40" x="120" y="320" /><text alignment-baseline="central" fill="black" font-size="20" text-anchor="middle" x="180" y="340">9</text><rect fill="none" height="40" stroke="black" stroke-width="1" width="40" x="160" y="320" /><text alignment-baseline="central" fill="black" font-size="20" text-anchor="middle" x="220" y="340">5</text><rect fill="none" height="40" stroke="black" stroke-width="1" width="40" x="200" y="320" /><text alignment-baseline="central" fill="black" font-size="20" text-anchor="middle" x="260" y="340">4</text><rect fill="none" height="40" stroke="black" stroke-width="1" width="40" x="240" y="320" /><text alignment-baseline="central" fill="black" font-size="20" text-anchor="middle" x="300" y="340">2</text><rect fill="none" height="40" stroke="black" stroke-width="1" width="40" x="280" y="320" /><text alignment-baseline="central" fill="black" font-size="20" text-anchor="middle" x="340" y="340">6</text><rect fill="none" height="40" stroke="black" stroke-width="1" width="40" x="320" y="320" /></g><rect fill="none" height="360" stroke="red" stroke-width="5" width="360" x="0" y="0" /></svg>